<svg width="26" height="26" viewBox="0 0 26 26" fill="none" xmlns="http://www.w3.org/2000/svg">
<path d="M13 0.75C6.24526 0.75 0.75 6.24526 0.75 13C0.75 19.7547 6.24526 25.25 13 25.25C19.7547 25.25 25.25 19.7547 25.25 13C25.25 6.24526 19.7548 0.75 13 0.75ZM13 23.7065C7.09632 23.7065 2.29346 18.9037 2.29346 13C2.29346 7.09632 7.09632 2.29346 13 2.29346C18.9037 2.29346 23.7065 7.09632 23.7065 13C23.7065 18.9037 18.9037 23.7065 13 23.7065Z" fill="white" stroke="white" stroke-width="0.5"/>
<path d="M13 15.3284C9.17732 15.3284 6.06738 18.4383 6.06738 22.261C6.06738 22.6319 6.36829 22.9328 6.73913 22.9328C7.10999 22.9328 7.41089 22.6318 7.41089 22.261C7.41089 19.1789 9.91798 16.6719 13 16.6719C16.082 16.6719 18.5891 19.1789 18.5891 22.261C18.5891 22.6318 18.89 22.9327 19.2609 22.9327C19.6317 22.9327 19.9326 22.6318 19.9326 22.261C19.9326 18.4383 16.8227 15.3284 13 15.3284Z" fill="white" stroke="white" stroke-width="0.3"/>
<path d="M13 5.98037C10.9033 5.98037 9.19781 7.68577 9.19781 9.78257C9.19781 11.8794 10.9032 13.5848 13 13.5848C15.0968 13.5848 16.8022 11.8793 16.8022 9.78257C16.8022 7.68583 15.0968 5.98037 13 5.98037ZM13 12.2412C11.6449 12.2412 10.5413 11.1376 10.5413 9.78257C10.5413 8.42751 11.6449 7.32388 13 7.32388C14.3551 7.32388 15.4587 8.42751 15.4587 9.78257C15.4587 11.1376 14.3551 12.2412 13 12.2412Z" fill="white" stroke="white" stroke-width="0.3"/>
</svg>
