<svg width="36" height="36" viewBox="0 0 36 36" fill="none" xmlns="http://www.w3.org/2000/svg">
<g clip-path="url(#clip0)">
<path fill-rule="evenodd" clip-rule="evenodd" d="M4.04121 21.7472H14.7044C14.8658 21.7472 14.9974 21.8786 14.9974 22.0399V24.3342C14.9974 24.4955 14.8658 24.627 14.7044 24.627H4.04121C3.87977 24.627 3.74822 24.4956 3.74822 24.3342V22.0399C3.74822 21.8786 3.87977 21.7472 4.04121 21.7472ZM1.9305 32.5195H34.0675C34.8309 32.5195 35.4568 31.9042 35.4727 31.1473V28.7714L35.3889 28.7734C33.4456 28.7734 31.8731 27.2 31.8731 25.2603C31.8731 23.3205 33.4456 21.7472 35.3889 21.7472H35.4727V7.94756C35.0163 8.16265 34.506 8.28218 33.9699 8.28218C32.0206 8.28218 30.44 6.70289 30.44 4.75509C30.44 4.30502 30.5238 3.87485 30.6772 3.48047H1.9305C1.15917 3.48047 0.527344 4.1118 0.527344 4.8825V12.6337C0.642938 12.6198 0.762539 12.6139 0.882141 12.6139C2.57632 12.6139 3.94952 13.9861 3.94952 15.6788C3.94952 17.3697 2.57625 18.7419 0.882141 18.7419C0.762539 18.7419 0.642938 18.7359 0.527344 18.722V31.1175C0.527344 31.8882 1.15917 32.5195 1.9305 32.5195ZM24.9191 21.9423C27.0836 21.9423 28.8396 23.6969 28.8396 25.8617C28.8396 28.0245 27.0837 29.7791 24.9191 29.7791C22.7526 29.7791 20.9966 28.0245 20.9966 25.8617C20.9966 23.6969 22.7526 21.9423 24.9191 21.9423ZM21.0026 12.9783V10.684C21.0026 10.5227 21.1342 10.3912 21.2956 10.3912H31.9588C32.1202 10.3912 32.2518 10.5226 32.2518 10.684V12.9783C32.2518 13.1396 32.1202 13.2711 31.9588 13.2711H21.2956C21.1342 13.271 21.0026 13.1396 21.0026 12.9783ZM14.7044 9.10069H4.04121C3.87977 9.10069 3.74822 8.96927 3.74822 8.80791V6.51361C3.74822 6.35231 3.87977 6.22083 4.04121 6.22083H14.7044C14.8658 6.22083 14.9974 6.35224 14.9974 6.51361V8.80791C14.9974 8.9692 14.8658 9.10069 14.7044 9.10069Z" fill="#F9F7F8"/>
<path fill-rule="evenodd" clip-rule="evenodd" d="M4.04121 9.10068H14.7044C14.8658 9.10068 14.9974 8.96927 14.9974 8.8079V6.51361C14.9974 6.35231 14.8658 6.22083 14.7044 6.22083H4.04121C3.87977 6.22083 3.74821 6.35224 3.74821 6.51361V8.8079C3.74821 8.9692 3.87977 9.10068 4.04121 9.10068Z" fill="#A7E9A6"/>
<path fill-rule="evenodd" clip-rule="evenodd" d="M4.04121 24.6269H14.7044C14.8658 24.6269 14.9974 24.4955 14.9974 24.3341V22.0399C14.9974 21.8786 14.8658 21.7471 14.7044 21.7471H4.04121C3.87977 21.7471 3.74821 21.8785 3.74821 22.0399V24.3341C3.74821 24.4954 3.87977 24.6269 4.04121 24.6269Z" fill="#A7E9A6"/>
<path fill-rule="evenodd" clip-rule="evenodd" d="M20.9966 25.8617C20.9966 28.0245 22.7526 29.7791 24.9191 29.7791C24.1617 29.7791 23.5479 28.0245 23.5479 25.8617C23.5479 23.6968 24.1618 21.9423 24.9191 21.9423C22.7526 21.9423 20.9966 23.6968 20.9966 25.8617Z" fill="#F37C7C"/>
<path fill-rule="evenodd" clip-rule="evenodd" d="M24.9191 29.7791C27.0836 29.7791 28.8396 28.0245 28.8396 25.8617C28.8396 23.6968 27.0837 21.9423 24.9191 21.9423C25.6765 21.9423 26.2903 23.6968 26.2903 25.8617C26.2903 28.0246 25.6765 29.7791 24.9191 29.7791Z" fill="#F37C7C"/>
<path fill-rule="evenodd" clip-rule="evenodd" d="M21.2956 13.271H31.9588C32.1202 13.271 32.2518 13.1396 32.2518 12.9782V10.6839C32.2518 10.5226 32.1202 10.3911 31.9588 10.3911H21.2956C21.1342 10.3911 21.0026 10.5225 21.0026 10.6839V12.9782C21.0026 13.1396 21.1342 13.271 21.2956 13.271Z" fill="#A7E9A6"/>
<path fill-rule="evenodd" clip-rule="evenodd" d="M0.527344 12.6338V18.722C0.642938 18.7359 0.762539 18.7419 0.882141 18.7419C2.57632 18.7419 3.94952 17.3697 3.94952 15.6789C3.94952 13.986 2.57625 12.6139 0.882141 12.6139C0.762539 12.6138 0.642938 12.6198 0.527344 12.6338Z" fill="#F37C7C"/>
<path fill-rule="evenodd" clip-rule="evenodd" d="M23.5479 25.8617C23.5479 28.0245 24.1618 29.7791 24.9191 29.7791C25.6764 29.7791 26.2903 28.0245 26.2903 25.8617C26.2903 23.6968 25.6764 21.9423 24.9191 21.9423C24.1618 21.9423 23.5479 23.6968 23.5479 25.8617Z" fill="#FFD772"/>
<path fill-rule="evenodd" clip-rule="evenodd" d="M29.7065 13.271C29.858 14.5536 29.9357 15.874 29.9357 17.2203C29.9357 20.2156 29.547 23.0775 28.8375 25.7064C28.8395 25.7562 28.8395 25.808 28.8395 25.8617C28.8395 26.7639 28.5345 27.5944 28.0223 28.2575C27.4523 29.7911 26.7667 31.219 25.9833 32.5195H34.0674C34.8308 32.5195 35.4567 31.9042 35.4726 31.1473V28.7714L35.3888 28.7734C33.4455 28.7734 31.873 27.2 31.873 25.2603C31.873 23.3205 33.4455 21.7472 35.3888 21.7472H35.4726V7.94756C35.0162 8.16265 34.5059 8.28218 33.9698 8.28218C32.0205 8.28218 30.4399 6.70289 30.4399 4.75509C30.4399 4.30502 30.5237 3.87485 30.6771 3.48047H26.8444C27.8888 5.54773 28.7039 7.87788 29.2342 10.3912H31.9588C32.1202 10.3912 32.2518 10.5226 32.2518 10.684V12.9783C32.2518 13.1396 32.1202 13.2711 31.9588 13.2711H29.7065V13.271Z" fill="#E5E4ED"/>
<path fill-rule="evenodd" clip-rule="evenodd" d="M29.2341 10.3912C29.4314 11.3273 29.5909 12.2872 29.7065 13.271H31.9588C32.1202 13.271 32.2517 13.1396 32.2517 12.9782V10.6839C32.2517 10.5226 32.1202 10.3911 31.9588 10.3911H29.2341V10.3912Z" fill="#7FDBAE"/>
<path fill-rule="evenodd" clip-rule="evenodd" d="M30.44 4.75509C30.44 6.70282 32.0206 8.28218 33.9699 8.28218C34.506 8.28218 35.0163 8.16272 35.4727 7.94756V4.85269C35.4567 4.09591 34.8308 3.48047 34.0675 3.48047H30.6773C30.5238 3.87478 30.44 4.30495 30.44 4.75509Z" fill="#FFD772"/>
<path fill-rule="evenodd" clip-rule="evenodd" d="M30.44 4.75509C30.44 6.70282 32.0206 8.28218 33.9699 8.28218C34.506 8.28218 35.0163 8.16272 35.4727 7.94756V4.85269C35.4567 4.09591 34.8308 3.48047 34.0675 3.48047H30.6773C30.5238 3.87478 30.44 4.30495 30.44 4.75509Z" fill="#FFD772"/>
<path fill-rule="evenodd" clip-rule="evenodd" d="M31.873 25.2602C31.873 27.2 33.4456 28.7733 35.3889 28.7733L35.4726 28.7714V21.7471H35.3889C33.4457 21.7471 31.873 23.3205 31.873 25.2602Z" fill="#FFD772"/>
<path fill-rule="evenodd" clip-rule="evenodd" d="M35.3889 21.7471C33.4456 21.7471 31.873 23.3205 31.873 25.2602C31.873 27.2 33.4456 28.7733 35.3889 28.7733L35.4726 28.7714V21.7471H35.3889V21.7471Z" fill="#FFD772"/>
<path fill-rule="evenodd" clip-rule="evenodd" d="M11.9798 6.2209C12.1771 7.15697 12.3365 8.11687 12.4521 9.10068H14.7044C14.8658 9.10068 14.9974 8.96927 14.9974 8.8079V6.51361C14.9974 6.35231 14.8658 6.22083 14.7044 6.22083H11.9798V6.2209Z" fill="#7FDBAE"/>
<path fill-rule="evenodd" clip-rule="evenodd" d="M11.9798 21.7471C12.1771 22.6832 12.3365 23.6451 12.4521 24.6269H14.7044C14.8658 24.6269 14.9974 24.4955 14.9974 24.3341V22.0399C14.9974 21.8786 14.8658 21.7471 14.7044 21.7471H11.9798V21.7471Z" fill="#7FDBAE"/>
<path d="M7.80419 11.3835H6.43295C6.14165 11.3835 5.90561 11.6196 5.90561 11.9108C5.90561 12.2021 6.14165 12.4382 6.43295 12.4382H7.80419C8.09549 12.4382 8.33153 12.2021 8.33153 11.9108C8.33153 11.6196 8.09549 11.3835 7.80419 11.3835Z" fill="black"/>
<path d="M15.1867 11.3835H10.6165C10.3252 11.3835 10.0892 11.6196 10.0892 11.9108C10.0892 12.2021 10.3252 12.4382 10.6165 12.4382H15.1867C15.478 12.4382 15.7141 12.2021 15.7141 11.9108C15.7141 11.6196 15.478 11.3835 15.1867 11.3835Z" fill="black"/>
<path d="M15.1867 13.7255H10.6165C10.3252 13.7255 10.0892 13.9616 10.0892 14.2529C10.0892 14.5441 10.3252 14.7802 10.6165 14.7802H15.1867C15.478 14.7802 15.7141 14.5441 15.7141 14.2529C15.7141 13.9616 15.478 13.7255 15.1867 13.7255Z" fill="black"/>
<path d="M7.80419 13.7255H6.43295C6.14165 13.7255 5.90561 13.9616 5.90561 14.2529C5.90561 14.5441 6.14165 14.7802 6.43295 14.7802H7.80419C8.09549 14.7802 8.33153 14.5441 8.33153 14.2529C8.33153 13.9616 8.09549 13.7255 7.80419 13.7255Z" fill="black"/>
<path d="M15.1867 16.0676H10.6165C10.3252 16.0676 10.0892 16.3037 10.0892 16.595C10.0892 16.8862 10.3252 17.1223 10.6165 17.1223H15.1867C15.478 17.1223 15.7141 16.8862 15.7141 16.595C15.7141 16.3037 15.478 16.0676 15.1867 16.0676Z" fill="black"/>
<path d="M7.80419 16.0676H6.43295C6.14165 16.0676 5.90561 16.3037 5.90561 16.595C5.90561 16.8862 6.14165 17.1223 6.43295 17.1223H7.80419C8.09549 17.1223 8.33153 16.8862 8.33153 16.595C8.33153 16.3037 8.09549 16.0676 7.80419 16.0676Z" fill="black"/>
<path d="M6.43295 19.4644H7.80419C8.09549 19.4644 8.33153 19.2282 8.33153 18.937C8.33153 18.6458 8.09549 18.4097 7.80419 18.4097H6.43295C6.14165 18.4097 5.90561 18.6458 5.90561 18.937C5.90561 19.2282 6.14172 19.4644 6.43295 19.4644Z" fill="black"/>
<path d="M15.7141 18.937C15.7141 18.6458 15.478 18.4097 15.1867 18.4097H10.6165C10.3252 18.4097 10.0892 18.6458 10.0892 18.937C10.0892 19.2282 10.3252 19.4644 10.6165 19.4644H15.1867C15.478 19.4644 15.7141 19.2282 15.7141 18.937Z" fill="black"/>
<path d="M5.11748 26.9097H3.74821C3.45691 26.9097 3.22087 27.1458 3.22087 27.4371C3.22087 27.7283 3.45691 27.9644 3.74821 27.9644H5.11755C5.40885 27.9644 5.64489 27.7283 5.64489 27.4371C5.64489 27.1458 5.40878 26.9097 5.11748 26.9097Z" fill="black"/>
<path d="M12.502 26.9097H7.93182C7.64052 26.9097 7.40448 27.1458 7.40448 27.4371C7.40448 27.7283 7.64052 27.9644 7.93182 27.9644H12.502C12.7933 27.9644 13.0293 27.7283 13.0293 27.4371C13.0293 27.1458 12.7932 26.9097 12.502 26.9097Z" fill="black"/>
<path d="M12.502 29.2517H7.93182C7.64052 29.2517 7.40448 29.4878 7.40448 29.7791C7.40448 30.0703 7.64052 30.3064 7.93182 30.3064H12.502C12.7933 30.3064 13.0293 30.0703 13.0293 29.7791C13.0293 29.4878 12.7932 29.2517 12.502 29.2517Z" fill="black"/>
<path d="M5.11748 29.2517H3.74821C3.45691 29.2517 3.22087 29.4878 3.22087 29.7791C3.22087 30.0703 3.45691 30.3064 3.74821 30.3064H5.11755C5.40885 30.3064 5.64489 30.0703 5.64489 29.7791C5.64489 29.4878 5.40878 29.2517 5.11748 29.2517Z" fill="black"/>
<path d="M32.2518 15.5538H26.378C26.0867 15.5538 25.8507 15.7899 25.8507 16.0811C25.8507 16.3724 26.0867 16.6085 26.378 16.6085H32.2518C32.5431 16.6085 32.7791 16.3724 32.7791 16.0811C32.7791 15.7899 32.5431 15.5538 32.2518 15.5538Z" fill="black"/>
<path d="M21.0026 16.6085H22.7646C23.0559 16.6085 23.2919 16.3724 23.2919 16.0811C23.2919 15.7899 23.0559 15.5538 22.7646 15.5538H21.0026C20.7113 15.5538 20.4753 15.7899 20.4753 16.0811C20.4753 16.3724 20.7114 16.6085 21.0026 16.6085Z" fill="black"/>
<path d="M21.0026 18.9505H22.7646C23.0559 18.9505 23.2919 18.7144 23.2919 18.4232C23.2919 18.1319 23.0559 17.8958 22.7646 17.8958H21.0026C20.7113 17.8958 20.4753 18.1319 20.4753 18.4232C20.4753 18.7144 20.7114 18.9505 21.0026 18.9505Z" fill="black"/>
<path d="M32.2518 17.8958H26.378C26.0867 17.8958 25.8507 18.1319 25.8507 18.4232C25.8507 18.7144 26.0867 18.9505 26.378 18.9505H32.2518C32.5431 18.9505 32.7791 18.7144 32.7791 18.4232C32.7791 18.1319 32.5431 17.8958 32.2518 17.8958Z" fill="black"/>
<path d="M32.7791 10.684C32.7791 10.2318 32.4112 9.86383 31.9588 9.86383H21.2956C20.8432 9.86383 20.4753 10.2317 20.4753 10.684V12.9783C20.4753 13.4305 20.8432 13.7984 21.2956 13.7984H31.9588C32.4112 13.7984 32.7791 13.4305 32.7791 12.9783V10.684ZM31.7244 12.7437H21.53V10.9185H31.7244V12.7437Z" fill="black"/>
<path d="M17.3763 3.48047C17.3763 3.18923 17.1403 2.95312 16.849 2.95312H1.9305C0.865969 2.95312 0 3.81867 0 4.8825V31.1175C0 32.1813 0.865969 33.0469 1.9305 33.0469H16.849C17.1403 33.0469 17.3763 32.8108 17.3763 32.5195C17.3763 32.2283 17.1403 31.9922 16.849 31.9922H1.9305C1.44759 31.9922 1.05469 31.5998 1.05469 31.1175V19.2649C2.95699 19.1746 4.47687 17.6008 4.47687 15.6788C4.47687 13.7559 2.95699 12.1811 1.05469 12.0909V4.8825C1.05469 4.40023 1.44759 4.00781 1.9305 4.00781H16.849C17.1402 4.00781 17.3763 3.7717 17.3763 3.48047ZM3.42218 15.6788C3.42218 17.0191 2.37502 18.119 1.05469 18.208V13.1477C2.37502 13.2367 3.42218 14.3376 3.42218 15.6788Z" fill="black"/>
<path d="M34.0675 2.95312H19.2527C18.9614 2.95312 18.7253 3.18923 18.7253 3.48047C18.7253 3.7717 18.9614 4.00781 19.2527 4.00781H29.9811C29.9356 4.25229 29.9127 4.50197 29.9127 4.75509C29.9127 6.99068 31.7327 8.80952 33.9699 8.80952C34.3031 8.80952 34.6289 8.76874 34.9453 8.69062V21.2446C32.9239 21.4662 31.3457 23.1822 31.3457 25.2603C31.3457 27.3384 32.9239 29.0544 34.9453 29.2759V31.1175C34.9453 31.5998 34.5515 31.9922 34.0675 31.9922H19.2826C18.9913 31.9922 18.7552 32.2283 18.7552 32.5195C18.7552 32.8108 18.9913 33.0469 19.2826 33.0469H34.0675C35.1331 33.0469 36 32.1813 36 31.1175V4.8825C36 3.81867 35.1331 2.95312 34.0675 2.95312ZM33.9699 7.75484C32.3143 7.75484 30.9674 6.4092 30.9674 4.75509C30.9674 4.49972 30.9994 4.24969 31.0614 4.00781H34.0675C34.5515 4.00781 34.9453 4.40023 34.9453 4.8825V7.59333C34.6336 7.70055 34.3068 7.75484 33.9699 7.75484ZM32.4004 25.2603C32.4004 23.7645 33.5071 22.5223 34.9453 22.3076V28.213C33.5071 27.9982 32.4004 26.7561 32.4004 25.2603Z" fill="black"/>
<path d="M24.9191 30.3065C27.3717 30.3065 29.3669 28.3125 29.3669 25.8617C29.3669 23.5883 27.6512 21.709 25.4464 21.4473V20.7434C25.4464 20.4522 25.2104 20.2161 24.9191 20.2161C24.6278 20.2161 24.3918 20.4522 24.3918 20.7434V21.4473C22.1859 21.7089 20.4693 23.5882 20.4693 25.8617C20.4693 28.3125 22.4655 30.3065 24.9191 30.3065ZM28.3122 25.8617C28.3122 27.2256 27.5015 28.4031 26.3366 28.9406C26.6621 28.0908 26.8177 26.9553 26.8177 25.8617C26.8177 24.7675 26.6621 23.6313 26.3364 22.7809C27.5014 23.3187 28.3122 24.497 28.3122 25.8617ZM24.9191 22.4714C25.1593 22.5589 25.763 23.6992 25.763 25.8617C25.763 28.0231 25.1593 29.1628 24.9191 29.2501C24.6789 29.1628 24.0751 28.0231 24.0751 25.8617C24.0751 23.6991 24.6789 22.5587 24.9191 22.4714ZM23.5019 22.7805C23.1761 23.6309 23.0205 24.7673 23.0205 25.8617C23.0205 26.9554 23.176 28.0911 23.5017 28.9411C22.3357 28.4037 21.5241 27.226 21.5241 25.8617C21.524 24.4966 22.3357 23.3181 23.5019 22.7805Z" fill="black"/>
<path d="M15.5247 8.8079V6.51361C15.5247 6.06143 15.1568 5.69348 14.7044 5.69348H4.04121C3.58882 5.69348 3.22087 6.06136 3.22087 6.51361V8.8079C3.22087 9.26008 3.58882 9.62803 4.04121 9.62803H14.7044C15.1568 9.62803 15.5247 9.26008 15.5247 8.8079ZM14.47 8.57334H4.27556V6.74824H14.47V8.57334Z" fill="black"/>
<path d="M15.5247 24.3341V22.0399C15.5247 21.5876 15.1568 21.2197 14.7044 21.2197H4.04121C3.58882 21.2197 3.22087 21.5876 3.22087 22.0399V24.3341C3.22087 24.7863 3.58882 25.1543 4.04121 25.1543H14.7044C15.1568 25.1543 15.5247 24.7864 15.5247 24.3341ZM14.47 24.0996H4.27556V22.2744H14.47V24.0996Z" fill="black"/>
</g>
<defs>
<clipPath id="clip0">
<rect width="36" height="36" fill="white"/>
</clipPath>
</defs>
</svg>
